<svg xmlns="http://www.w3.org/2000/svg" viewBox="0 0 500 500"><style>@media (prefers-color-scheme:dark){.a{fill:#f0f0f0}}</style><path fill="#0f0f0f" d="M125 0C55.8 0 0 55.8 0 125v250c0 69.2 55.8 125 125 125h250c69.2 0 125-55.8 125-125V125C500 55.8 444.2 0 375 0H125zm121 70.9c15.3 0 29 1.72 41.1 5.17 12.2 3.44 22.9 8.61 32 15.5 9.3 6.72 17.2 15.1 23.8 25.1s12 21.5 16.3 34.6l-20.7 9.56c-3.27-9.99-7.66-19.1-13.2-27.4-5.34-8.44-11.9-15.6-19.6-21.4-7.75-6.03-16.8-10.7-27.1-13.9-10.3-3.27-22-4.91-35.1-4.91-11.7 0-22 1.55-30.7 4.65-8.78 2.93-16.1 6.89-22 11.9-5.68 4.82-9.99 10.3-12.9 16.5-2.93 6.03-4.39 12.2-4.39 18.6 0 7.75 2.5 15.2 7.49 22.2 5.17 6.89 11.9 13.5 20.1 19.9 8.44 6.37 18 12.6 28.7 18.6 10.7 5.85 21.6 11.7 32.8 17.6 12.4 6.37 24.8 13.2 37.2 20.4 12.4 7.06 23.6 15 33.6 23.8 9.99 8.61 18.1 18.2 24.3 28.7 6.37 10.3 9.56 22 9.56 34.9 0 13.6-2.5 26.4-7.49 38.5-4.99 11.9-12.4 22.3-22.2 31.3-9.82 8.78-22.1 15.8-36.9 20.9-14.6 5.17-31.7 7.75-51.1 7.75-15.5 0-29.4-1.81-41.8-5.42-12.4-3.62-23.4-8.87-33.1-15.8-9.47-7.06-17.7-15.6-24.5-25.6-6.72-10.2-12.4-21.7-17-34.6l22-9.04c3.44 10.8 8.27 20.5 14.5 28.9 6.37 8.44 13.8 15.7 22.2 21.7 8.44 5.85 17.9 10.3 28.4 13.4 10.5 3.1 21.7 4.65 33.6 4.65 9.13 0 18.1-1.12 26.9-3.36 8.95-2.41 16.9-5.85 23.8-10.3 7.06-4.65 12.7-10.2 17-16.8 4.31-6.72 6.46-14.5 6.46-23.2 0-9.47-2.5-18.1-7.49-25.8-4.99-7.75-11.6-14.9-19.9-21.4-8.27-6.72-17.8-13-28.7-18.9-10.7-6.03-21.7-12-33.1-17.8-12.1-6.2-24-12.6-35.9-19.1-11.7-6.72-22.3-14.2-31.8-22.5-9.3-8.44-16.9-17.9-22.7-28.4-5.68-10.7-8.52-23.1-8.52-37.2 0-13.1 2.33-25.2 6.97-36.4 4.65-11.2 11.5-20.8 20.4-28.9 9.13-8.27 20.3-14.7 33.6-19.4s28.4-6.97 45.5-6.97z" class="a"/></svg>